<svg xmlns="http://www.w3.org/2000/svg" width="60" height="40" fill="none"><path fill="#ccc" d="M56.25 1.25c0 .69.56 1.25 1.25 1.25h1.25a1.25 1.25 0 1 0 0-2.5H57.5c-.69 0-1.25.56-1.25 1.25zM20 40h6.072l-1.767-1.768a2.5 2.5 0 0 0-1.768-.732H20c-9.665 0-17.5-7.835-17.5-17.5S10.335 2.5 20 2.5h20c9.665 0 17.5 7.835 17.5 17.5S49.665 37.5 40 37.5h-7.482a3.75 3.75 0 0 1-2.651-1.098l-2.071-2.071a6.25 6.25 0 0 0-4.42-1.831H20c-6.904 0-12.5-5.596-12.5-12.5S13.096 7.5 20 7.5h20c6.904 0 12.5 5.596 12.5 12.5S46.904 32.5 40 32.5h-4.804a3.75 3.75 0 0 1-2.652-1.098l-2.07-2.071a6.25 6.25 0 0 0-4.42-1.831H20a7.5 7.5 0 0 1 0-15h20a7.5 7.5 0 0 1 .151 14.998v.002h-1.83a3.75 3.75 0 0 1-2.652-1.098L33.6 24.33a6.25 6.25 0 0 0-3.536-1.768L30 22.5H20a2.5 2.5 0 0 1 0-5h20a2.5 2.5 0 0 1 0 5h-5l1.768 1.768a2.5 2.5 0 0 0 1.767.732H40a5 5 0 0 0 0-10H20a5 5 0 0 0 0 10h9.179a3.75 3.75 0 0 1 2.652 1.098l2.07 2.071A6.25 6.25 0 0 0 38.322 30h2.304v-.02A9.998 9.998 0 0 0 50 20c0-5.523-4.477-10-10-10H20c-5.523 0-10 4.477-10 10s4.477 10 10 10h6.054a3.75 3.75 0 0 1 2.652 1.098l2.07 2.071A6.25 6.25 0 0 0 35.197 35H40c8.284 0 15-6.716 15-15 0-8.284-6.716-15-15-15H20C11.716 5 5 11.716 5 20c0 8.284 6.716 15 15 15h3.376a3.75 3.75 0 0 1 2.652 1.098l2.071 2.071A6.25 6.25 0 0 0 32.519 40H40c11.046 0 20-8.954 20-20S51.046 0 40 0H20C8.954 0 0 8.954 0 20s8.954 20 20 20z" class="ccustom" stop-color="#ccc"/></svg>