<svg xmlns="http://www.w3.org/2000/svg" width="84" height="40" fill="none"><path fill="#000" d="M76.062 38.945v.095a.979.979 0 0 1-.084.154l-.12.142-.121.107a1.51 1.51 0 0 1-.422.248h-.06c-.15.059-.308.091-.47.095H69.97a.905.905 0 0 1-.686-.284l-5.261-5.352-3.455 5.162-.072.095-.12.142h-.206a1.112 1.112 0 0 1-.325.19l-.12.059a1.63 1.63 0 0 1-.47.094H54.44a.903.903 0 0 1-.686-.284l-1.794-2.024-6.308 2.214a1.11 1.11 0 0 1-.47.094.924.924 0 0 1-.602-.2l-.096-.096-3.01-3.386c-.12.403-.217.805-.349 1.184l-.072.166a.639.639 0 0 1-.084.154l-.073.095-.132.142-.169.154c-.093.07-.194.13-.3.177l-.35.426c-.165.062-.34.093-.517.095h-3.95a.893.893 0 0 1-.685-.272l-1.3-1.468-.567 1.847a.55.55 0 0 1-.072.177l-.072.154-.072.095-.12.142a1.03 1.03 0 0 1-.17.154 2.65 2.65 0 0 1-.312.178l-.157.082a1.55 1.55 0 0 1-.505.107h-7.151a.905.905 0 0 1-.699-.284L22.55 38.53h-3.792l-.085.284a.981.981 0 0 1-.06.178.983.983 0 0 0-.084.154l-.072.094-.12.142a1.03 1.03 0 0 1-.17.154 2.67 2.67 0 0 1-.312.178l-.157.083c-.16.063-.332.1-.505.106h-4.467a.905.905 0 0 1-.686-.284l-1.384-1.551h-4.13a.893.893 0 0 1-.686-.272L.217 31.805a.522.522 0 0 0 .156.107.717.717 0 0 1-.252-.249 1.063 1.063 0 0 1 0-.983A122.11 122.11 0 0 0 7.91 10.705v-.083l-.398-.45s.06 0 .097.083a.897.897 0 0 1-.241-.971L8.68 4.95a1.73 1.73 0 0 1 .593-.825c.276-.211.61-.336.96-.359h4.816l.782-2.581c.111-.326.318-.613.594-.824.277-.21.61-.336.96-.36h4.502a.855.855 0 0 1 .698.32l1.541 1.74.12-.32c.11-.33.317-.619.596-.83.28-.212.618-.335.97-.354h15.903a.892.892 0 0 1 .698.32l4.816 5.458-.084-4.546A1.45 1.45 0 0 1 47.65.735a1.623 1.623 0 0 1 1.108-.486h4.815a.879.879 0 0 1 .77.415.485.485 0 0 0-.084-.13l3.612 4.037.614-2.025c.107-.328.312-.618.59-.829a1.75 1.75 0 0 1 .963-.355h17.577a.892.892 0 0 1 .71.308l5.49 6.193.072.083a.68.68 0 0 1 .109.296v.06c.005.086.005.173 0 .26a1.61 1.61 0 0 1 0 .2L78.47 26.869l-.073.177-.084.154s0 .06-.072.095l-.12.142-.181.154c-.096.07-.205.118-.301.177-.096.06-.108.072-.157.083-.163.07-.339.107-.517.107h-2.408l.951 1.066v.082c.061.11.098.231.108.356l.53 8.928v.402c0 .083-.084.119-.084.154z" class="ccustom"/><path fill="#fff" d="M1.3 30.905a124.259 124.259 0 0 0 7.886-20.2h3.744a130.254 130.254 0 0 1-7.633 20.2H1.3zM25.498 1.718l-1.312 4.286h15.88l1.312-4.286h-15.88zM13.316 31.32h4.479a66.654 66.654 0 0 0 6.633-14.801h-3.985a56.81 56.81 0 0 1-7.15 14.742l.023.059zm7.813-21.03-1.324 4.358h7.597L23.2 28.442h-2.745l-1.324 4.322h7.151l5.514-18.116h7.38l1.336-4.358H21.128zm-3.37 3.446 1.348-4.417h2.78l1.325-4.333h-2.757l1.204-3.754h-4.587l-1.204 3.754h-5.96L8.584 9.319h6.02L7.5 32.788h4.467l4.19-13.76 1.576 1.528 1.602-5.257-1.578-1.563zm14.687 2.925a46.426 46.426 0 0 1-2.07 14.813h3.96a53.485 53.485 0 0 0 2.408-14.813h-4.298zM53.308 1.398h-4.875l.132 7.566h4.888l-.145-7.566zm-10.197 9.934-1.408 4.642h3.359l-5.117 16.814 8.632-3.031 1.577-5.198-3.443 1.184 4.394-14.422-7.994.011zm10.944 21.432 5.959-8.916h-4.816l-6.019 8.916h4.876zM59.76 2.523 54.21 20.71h17.577l5.538-18.187H59.76zm8.813 13.652h-8.367l2.769-9.129h8.427l-2.781 9.13m-4.6 7.637.53 8.916h4.816l-.541-8.916h-4.804z"/></svg>