<svg xmlns="http://www.w3.org/2000/svg" width="155" height="40" fill="none"><path fill="#ccc" d="M51.582 10.284H48v16.163h9.916V23.28h-6.334V10.284zm6.676 10.681c0 3.45 2.316 5.744 5.81 5.744 3.473 0 5.789-2.293 5.789-5.744 0-3.451-2.316-5.767-5.788-5.767-3.495 0-5.81 2.316-5.81 5.767zm3.386-.022c0-1.638.961-2.73 2.425-2.73 1.441 0 2.402 1.092 2.402 2.73 0 1.66-.96 2.752-2.403 2.752-1.463 0-2.424-1.092-2.424-2.752zm8.754-.153c0 3.298 2.14 5.526 5.176 5.526 1.464 0 2.73-.524 3.364-1.376v1.507c0 1.507-.94 2.512-2.6 2.512-1.484 0-2.511-.699-2.576-1.944h-3.408c.306 2.992 2.621 5.002 5.788 5.002 3.735 0 6.094-2.425 6.094-6.269V15.526H79.2l-.175 1.114c-.611-.896-1.9-1.485-3.385-1.485-3.058 0-5.242 2.293-5.242 5.635zm3.407-.087c0-1.573 1.049-2.621 2.381-2.621 1.55 0 2.687 1.026 2.687 2.62 0 1.595-1.114 2.687-2.665 2.687-1.332 0-2.403-1.092-2.403-2.686zm9.412.262c0 3.45 2.315 5.744 5.81 5.744 3.473 0 5.788-2.293 5.788-5.744 0-3.451-2.315-5.767-5.788-5.767-3.495 0-5.81 2.316-5.81 5.767zm3.385-.022c0-1.638.961-2.73 2.425-2.73 1.441 0 2.402 1.092 2.402 2.73 0 1.66-.96 2.752-2.402 2.752-1.464 0-2.425-1.092-2.425-2.752zm11.113-7.121c1.048 0 1.9-.851 1.9-1.922 0-1.07-.852-1.9-1.9-1.9-1.07 0-1.922.83-1.922 1.9 0 1.07.852 1.922 1.922 1.922zM96.01 26.447h3.386v-10.92H96.01v10.92zm5.358 5.243h3.32v-6.335c.633.83 2.075 1.398 3.582 1.398 3.254 0 5.22-2.49 5.133-5.941-.088-3.517-2.119-5.635-5.155-5.635-1.551 0-3.014.677-3.626 1.681l-.175-1.332h-3.079V31.69zm3.385-10.703c0-1.638 1.092-2.73 2.665-2.73 1.594 0 2.599 1.113 2.599 2.73 0 1.616-1.005 2.73-2.599 2.73-1.573 0-2.665-1.092-2.665-2.73zm9.008 2.009c.087 2.206 1.835 3.735 4.587 3.735 2.643 0 4.478-1.398 4.478-3.648 0-1.616-.961-2.686-2.753-3.123l-1.943-.48c-.699-.175-1.136-.35-1.136-.918 0-.568.458-.94 1.136-.94.764 0 1.266.503 1.245 1.246h3.036c-.088-2.272-1.813-3.691-4.216-3.691-2.424 0-4.237 1.441-4.237 3.625 0 1.464.808 2.665 2.97 3.233l1.922.502c.568.153.808.415.808.787 0 .546-.502.895-1.354.895-.983 0-1.507-.458-1.507-1.223h-3.036zm14.213 3.735c1.333 0 2.665-.612 3.342-1.507l.219 1.223h3.167v-10.92h-3.364v5.678c0 1.638-.48 2.534-2.031 2.534-1.202 0-1.988-.546-1.988-2.578v-5.635h-3.364v6.858c0 2.6 1.442 4.347 4.019 4.347zm12.062-.284v-5.963c0-1.835.983-2.359 1.944-2.359 1.07 0 1.769.656 1.769 2.01v6.312h3.32v-5.963c0-1.856.961-2.38 1.922-2.38 1.07 0 1.791.655 1.791 2.03v6.313h3.277v-7.142c0-2.49-1.311-4.15-4.129-4.15-1.572 0-2.861.764-3.429 1.944-.655-1.18-1.791-1.944-3.604-1.944-1.201 0-2.315.546-2.97 1.42l-.131-1.049h-3.146v10.921h3.386zM0 20C0 10.572 0 5.858 2.929 2.929 5.858 0 10.572 0 20 0s14.142 0 17.071 2.929C40 5.858 40 10.572 40 20s0 14.142-2.929 17.071C34.142 40 29.428 40 20 40S5.858 40 2.929 37.071C0 34.142 0 29.428 0 20z" class="ccustom" stop-color="#ccc"/><path fill="#000" d="M24 26c.552 0 1.01.452.9.993a5 5 0 0 1-9.8 0c-.11-.54.348-.993.9-.993h8zm2.102-8.224c-.533.143-.86.701-.59 1.183a4 4 0 1 0 .627-4.754c-.386.395-.215 1.019.263 1.295l.507.293c.772.445.62 1.601-.24 1.832l-.567.151zm-12.204 0c.533.143.86.701.59 1.183a4 4 0 1 1-.626-4.754c.386.395.214 1.019-.264 1.295l-.507.293c-.772.445-.62 1.601.241 1.832l.566.151z" class="ccompli2"/></svg>